<?xml version="1.0" encoding="iso-8859-1"?>
<!-- Uploaded to: SVG Repo, www.svgrepo.com, Generator: SVG Repo Mixer Tools -->
<svg version="1.1" id="Layer_1" xmlns="http://www.w3.org/2000/svg" xmlns:xlink="http://www.w3.org/1999/xlink" 
	 viewBox="0 0 511.98 511.98" xml:space="preserve">
<path style="fill:#5D9CEC;" d="M460.643,386.344l-1.844-0.516c-26.469-7.125-35.404-13.938-47.186-18.422
	c-41.812-15.921-52.686-27.405-55.467-32.827c-0.094-0.188-0.156-0.406-0.25-0.594l-0.344-48.56l-99.145-1.125l-99.121,1.125
	l-0.344,48.56c-0.094,0.188-0.172,0.406-0.266,0.594c-2.781,5.422-13.655,16.906-55.451,32.827
	c-11.78,4.484-20.733,11.297-47.217,18.422l-1.812,0.516c-24.093,7.968-40.295,30.312-40.295,55.528v70.107h489.02v-70.107
	C500.923,416.656,484.736,394.312,460.643,386.344z"/>
<rect x="213.75" y="319.99" style="fill:#CCD1D9;" width="85.33" height="191.99"/>
<g>
	<polygon style="fill:#E6E9ED;" points="156.678,334.58 203.082,393.984 256.409,363.11 157.224,294.911 	"/>
	<polygon style="fill:#E6E9ED;" points="355.46,294.911 256.409,363.079 309.743,393.984 355.897,333.986 	"/>
</g>
<g>
	<path style="fill:#080808;" d="M263.956,451.107c4.172,4.156,4.172,10.905,0,15.093c-4.172,4.156-10.922,4.156-15.078,0
		c-4.171-4.188-4.171-10.937,0-15.093C253.033,446.951,259.784,446.951,263.956,451.107z"/>
	<path style="fill:#080808;" d="M263.956,408.453c4.172,4.156,4.172,10.906,0,15.062c-4.172,4.188-10.922,4.188-15.078,0
		c-4.171-4.155-4.171-10.905,0-15.062C253.033,404.265,259.784,404.265,263.956,408.453z"/>
</g>
<path style="fill:#434A54;" d="M267.081,10.663c0,5.891-4.781,10.672-10.672,10.672c-5.891,0-10.655-4.781-10.655-10.672
	S250.517,0,256.409,0S267.081,4.772,267.081,10.663z"/>
<path style="fill:#EAC6BB;" d="M393.958,191.485c0,89.379-85.185,171.625-137.55,171.625c-52.342,0-137.542-82.246-137.542-171.625
	c0-89.372,61.576-148.338,137.542-148.338C332.367,43.146,393.958,102.113,393.958,191.485z"/>
<path style="fill:#5D9CEC;" d="M256.409,10.663c-77.044,0-141.932,63.552-141.932,141.94v39.389h283.856l0.031-39.389
	C398.365,74.215,333.461,10.663,256.409,10.663z"/>
<path style="fill:#656D78;" d="M410.615,193.234c0,0-29-54.576-154.206-54.576c-125.183,0-154.197,54.576-154.197,54.576
	c-2.766,5.18-0.219,9.421,5.656,9.421h297.091C410.833,202.656,413.363,198.414,410.615,193.234z"/>
<path style="fill:#434A54;" d="M409.178,190.977c-1.094,0.64-2.5,1.015-4.219,1.015H107.868c-1.719,0-3.125-0.375-4.234-1.015
	c-0.984,1.437-1.422,2.257-1.422,2.257c-2.766,5.18-0.219,9.421,5.656,9.421h297.091c5.875,0,8.405-4.242,5.656-9.421
	C410.615,193.234,410.178,192.414,409.178,190.977z"/>
<g>
	<rect x="331.091" y="469.32" style="fill:#E6E9ED;" width="106.65" height="42.655"/>
	<path style="fill:#E6E9ED;" d="M256.409,58.662c-16.28,0-26.655,24.514-26.655,37.334c0,14.703,11.953,26.663,26.655,26.663
		c14.703,0,26.679-11.96,26.679-26.663C283.087,83.176,272.682,58.662,256.409,58.662z"/>
</g>
<path style="fill:#F4BE8E;" d="M128.335,418.781H85.681v93.199h42.654v-93.199H128.335z"/>
<path style="fill:#434A54;" d="M192.38,341.33H21.714c-5.89,0-10.655,4.766-10.655,10.656c0,52.936,43.061,95.996,95.98,95.996
	c52.936,0,96.012-43.061,96.012-95.996C203.051,346.095,198.27,341.33,192.38,341.33z"/>
<path style="fill:#656D78;" d="M192.38,341.33h-10.672c5.891,0,10.672,4.766,10.672,10.656c0,51.154-40.202,93.059-90.669,95.84
	c1.766,0.094,3.547,0.156,5.328,0.156c52.936,0,96.012-43.061,96.012-95.996C203.051,346.095,198.27,341.33,192.38,341.33z"/>
</svg>